:FULLY-SPECIFIED
:FORCE-ALL-JOINTS-BE-3DOF
:DEGREES
1835
root 6.61923 13.9151 27.8386 -21.4062 54.7511 -23.7701
lfemur -53.5644 26.4928 1.90461
ltibia 66.2324 -0 0
lfoot -4.70332 -7.41456 0.226972
ltoes -20.954 0 0
rfemur 3.88648 -5.54804 17.9086
rtibia 48.3289 -0 0
rfoot -26.3361 -29.7343 -0.038667
rtoes -28.8373 0 0
lowerback 14.0405 4.49899 6.53625
upperback -0.531857 7.57103 4.67109
thorax -8.27008 3.53185 -0.232735
lowerneck -3.30647 11.2553 4.0149
upperneck 6.98812 15.1018 -2.93839
head 3.52579 7.51451 -0.968808
lclavicle -3.07876e-14 -3.82073e-14 -1.6338e-30
lhumerus 62.1164 15.1409 107.929
lradius 10.2174 -0 0
lwrist -84.7209 0 0
lhand -32.3834 41.6029 -0.0436623
lfingers 7.12502 -0 0
lthumb -5.61839 71.4909 -0.0397651
rclavicle -3.07876e-14 -3.82073e-14 -1.6338e-30
rhumerus -71.9224 10.7884 -82.8978
rradius 124.992 -0 0
rwrist -42.2007 180 180
rhand -59.9756 -78.7384 3.12886
rfingers 7.12502 -0 0
rthumb -32.5825 -97.6308 1.65672
1836
root 6.6983 13.9001 27.8439 -21.2112 54.461 -23.7546
lfemur -53.8577 27.0294 1.88037
ltibia 67.0712 -0 0
lfoot -5.35834 -7.62495 0.197718
ltoes -21.7718 0 0
rfemur 4.07751 -5.34402 17.8536
rtibia 48.0446 -0 0
rfoot -26.1754 -29.8811 -0.0336921
rtoes -29.1038 0 0
lowerback 14.0381 4.58591 6.52963
upperback -0.550645 7.69162 4.71581
thorax -8.29058 3.5908 -0.205424
lowerneck -3.19238 11.4582 4.20057
upperneck 6.92187 15.3807 -3.1322
head 3.51517 7.65219 -1.0502
lclavicle -3.13315e-14 -4.00406e-14 -1.42364e-30
lhumerus 62.2466 15.2677 108.142
lradius 10.1939 -0 0
lwrist -85.2329 0 0
lhand -32.1803 41.4717 -0.0380444
lfingers 7.12502 -0 0
lthumb -5.42239 71.3671 -0.0346488
rclavicle -3.13315e-14 -4.00406e-14 -1.42364e-30
rhumerus -72.247 10.9226 -83.0789
rradius 125.166 -0 0
rwrist -43.5477 180 180
rhand -59.481 -75.4023 2.70576
rfingers 7.12502 -0 0
rthumb -32.0877 -95.6796 1.4399
1837
root 6.77218 13.886 27.8489 -21.0303 54.19 -23.7417
lfemur -54.1333 27.5308 1.85482
ltibia 67.8549 -0 0
lfoot -5.9703 -7.82123 0.168211
ltoes -22.536 0 0
rfemur 4.25578 -5.15323 17.8027
rtibia 47.7789 -0 0
rfoot -26.0253 -30.0183 -0.0286715
rtoes -29.3529 0 0
lowerback 14.0359 4.66714 6.52343
upperback -0.568121 7.80431 4.75757
thorax -8.30972 3.64589 -0.179921
lowerneck -3.08509 11.6475 4.37455
upperneck 6.85901 15.6411 -3.31384
head 3.50507 7.78082 -1.12629
lclavicle -3.18397e-14 -4.17536e-14 -1.21153e-30
lhumerus 62.3688 15.3857 108.341
lradius 10.1719 -0 0
lwrist -85.7113 0 0
lhand -31.9906 41.3492 -0.0323751
lfingers 7.12502 -0 0
lthumb -5.23926 71.2515 -0.0294856
rclavicle -3.18397e-14 -4.17536e-14 -1.21153e-30
rhumerus -72.5507 11.0469 -83.2489
rradius 125.328 -0 0
rwrist -44.8063 180 180
rhand -59.0421 -72.2894 2.28508
rfingers 7.12502 -0 0
rthumb -31.6324 -93.8584 1.2222
1838
root 6.84038 13.8731 27.8535 -20.8644 53.9398 -23.7311
lfemur -54.3891 27.9935 1.82871
ltibia 68.5784 -0 0
lfoot -6.53521 -8.00216 0.139108
ltoes -23.2414 0 0
rfemur 4.42014 -4.97696 17.7563
rtibia 47.5336 -0 0
rfoot -25.8867 -30.1449 -0.0237181
rtoes -29.5827 0 0
lowerback 14.0338 4.74211 6.51771
upperback -0.584183 7.90835 4.7961
thorax -8.32735 3.69676 -0.156394
lowerneck -2.98547 11.8219 4.53559
upperneck 6.80014 15.8813 -3.48198
head 3.49558 7.89956 -1.19658
lclavicle -3.23088e-14 -4.33349e-14 -1.00225e-30
lhumerus 62.482 15.4943 108.526
lradius 10.1516 -0 0
lwrist -86.1529 0 0
lhand -31.8154 41.2362 -0.0267815
lfingers 7.12502 -0 0
lthumb -5.07022 71.1448 -0.0243913
rclavicle -3.23088e-14 -4.33349e-14 -1.00225e-30
rhumerus -72.8315 11.1609 -83.4064
rradius 125.478 -0 0
rwrist -45.9682 180 180
rhand -58.6578 -69.4195 1.87613
rfingers 7.12502 -0 0
rthumb -31.2184 -92.1788 1.00849
1839
root 6.9024 13.8613 27.8577 -20.7145 53.7122 -23.7227
lfemur -54.6228 28.4141 1.80282
ltibia 69.2363 -0 0
lfoot -7.04878 -8.16641 0.111099
ltoes -23.8831 0 0
rfemur 4.56947 -4.81654 17.7146
rtibia 47.3106 -0 0
rfoot -25.7607 -30.26 -0.0189472
rtoes -29.7918 0 0
lowerback 14.0319 4.8103 6.5125
upperback -0.598733 8.00298 4.83112
thorax -8.34338 3.74302 -0.13501
lowerneck -2.89437 11.9803 4.6824
upperneck 6.7459 16.0997 -3.6353
head 3.48682 8.00753 -1.26054
lclavicle -3.27355e-14 -4.47731e-14 -8.00667e-31
lhumerus 62.5854 15.5927 108.694
lradius 10.1331 -0 0
lwrist -86.5546 0 0
lhand -31.6561 41.1334 -0.0213943
lfingers 7.12502 -0 0
lthumb -4.91649 71.0478 -0.0194849
rclavicle -3.27355e-14 -4.47731e-14 -8.00667e-31
rhumerus -73.0873 11.264 -83.5502
rradius 125.614 -0 0
rwrist -47.0249 180 180
rhand -58.3266 -66.8124 1.48794
rfingers 7.12502 -0 0
rthumb -30.8476 -90.6528 0.803677
